<?xml version="1.0" standalone="no"?><!DOCTYPE svg PUBLIC "-//W3C//DTD SVG 1.1//EN" "http://www.w3.org/Graphics/SVG/1.1/DTD/svg11.dtd"><svg t="1542552829567" class="icon" style="" viewBox="0 0 1024 1024" version="1.1" xmlns="http://www.w3.org/2000/svg" p-id="1849" xmlns:xlink="http://www.w3.org/1999/xlink" width="200" height="200"><defs><style type="text/css"></style></defs><path d="M512.778 710.899c161.54 0 380.652-165.084 395.877-210.466-5.94-49.716-212.162-229.515-395.877-229.515-174.761 0-395.981 143.212-396 230.61 4.597 43.055 216.884 209.37 396 209.37v0zM512.778 754.916c-183.513 0-439.979-172.713-439.979-253.009 0-127.243 258.003-275.011 439.979-275.011 199.137 0 439.986 193.526 439.986 275.011-0.001 67.801-263.244 253.009-439.986 253.009v0 0 0M512.778 754.916v0z" p-id="1850"></path><path d="M512.778 600.903c60.631 0 109.998-49.373 109.998-109.997 0-60.628-49.37-109.996-109.998-109.996-60.626 0-109.991 49.366-109.991 109.996 0 60.627 49.366 109.997 109.991 109.997v0zM512.778 644.923c-85.068 0-154.015-68.947-154.015-154.016 0-85.072 68.947-154.017 154.015-154.017 85.075 0 154.017 68.946 154.017 154.017-0.001 85.070-68.943 154.016-154.017 154.016v0 0 0M512.778 644.923v0z" p-id="1851"></path><path d="M90.519 554.833v0z" p-id="1852"></path></svg>